<?xml version="1.0" standalone="no"?>
 <!DOCTYPE svg PUBLIC "-//W3C//DTD SVG 1.1//EN" 
 "http://www.w3.org/Graphics/SVG/1.1/DTD/svg11.dtd"> 
<svg
  xmlns:svg="http://www.w3.org/2000/svg"
  xmlns="http://www.w3.org/2000/svg"
  xmlns:xlink="http://www.w3.org/1999/xlink"
  version="1.1"
  width="297.0022mm" height="210.0072mm" viewBox="0.0000 0.0000 297.0022 210.0072">
<title>SVG Image created as dc_bus_fault.svg date 2026/03/07 18:11:42 </title>
  <desc>Image generated by Eeschema-SVG </desc>
<g style="fill:#000000; fill-opacity:1.0000;stroke:#000000; stroke-opacity:1.0000;
stroke-linecap:round; stroke-linejoin:round;"
 transform="translate(0 0) scale(1 1)">
</g>
<g style="fill:none; 
stroke:#141414; stroke-width:0.2540; stroke-opacity:1; 
stroke-linecap:round; stroke-linejoin:round;">
<rect x="195.834000" y="102.870000" width="2.032000" height="5.080000" rx="0.000000" />
</g>
<g style="fill:none; 
stroke:#8C8C8C; stroke-width:0.1524; stroke-opacity:1; 
stroke-linecap:round; stroke-linejoin:round;">
<path d="M196.8500 102.8700
L196.8500 101.6000
" />
<path d="M196.8500 107.9500
L196.8500 109.2200
" />
</g>
<g style="fill:none; 
stroke:#282828; stroke-width:0.1524; stroke-opacity:1; 
stroke-linecap:round; stroke-linejoin:round;">
<text x="204.0973" y="104.4050"
textLength="6.8554" font-size="1.6933" lengthAdjust="spacingAndGlyphs"
text-anchor="middle" opacity="0" stroke-opacity="0">R_fault</text>
<g class="stroked-text"><desc>R_fault</desc>
<path d="M201.7992 104.3495
L201.3759 103.7448
" />
<path d="M201.0735 104.3495
L201.0735 103.0795
" />
<path d="M201.0735 103.0795
L201.5573 103.0795
" />
<path d="M201.5573 103.0795
L201.6783 103.1400
" />
<path d="M201.6783 103.1400
L201.7388 103.2005
" />
<path d="M201.7388 103.2005
L201.7992 103.3214
" />
<path d="M201.7992 103.3214
L201.7992 103.5029
" />
<path d="M201.7992 103.5029
L201.7388 103.6238
" />
<path d="M201.7388 103.6238
L201.6783 103.6843
" />
<path d="M201.6783 103.6843
L201.5573 103.7448
" />
<path d="M201.5573 103.7448
L201.0735 103.7448
" />
<path d="M202.0412 104.4705
L203.0088 104.4705
" />
<path d="M203.1297 103.5029
L203.6135 103.5029
" />
<path d="M203.3111 104.3495
L203.3111 103.2610
" />
<path d="M203.3111 103.2610
L203.3716 103.1400
" />
<path d="M203.3716 103.1400
L203.4926 103.0795
" />
<path d="M203.4926 103.0795
L203.6135 103.0795
" />
<path d="M204.5811 104.3495
L204.5811 103.6843
" />
<path d="M204.5811 103.6843
L204.5206 103.5633
" />
<path d="M204.5206 103.5633
L204.3997 103.5029
" />
<path d="M204.3997 103.5029
L204.1578 103.5029
" />
<path d="M204.1578 103.5029
L204.0368 103.5633
" />
<path d="M204.5811 104.2891
L204.4602 104.3495
" />
<path d="M204.4602 104.3495
L204.1578 104.3495
" />
<path d="M204.1578 104.3495
L204.0368 104.2891
" />
<path d="M204.0368 104.2891
L203.9764 104.1681
" />
<path d="M203.9764 104.1681
L203.9764 104.0471
" />
<path d="M203.9764 104.0471
L204.0368 103.9262
" />
<path d="M204.0368 103.9262
L204.1578 103.8657
" />
<path d="M204.1578 103.8657
L204.4602 103.8657
" />
<path d="M204.4602 103.8657
L204.5811 103.8052
" />
<path d="M205.7301 103.5029
L205.7301 104.3495
" />
<path d="M205.1858 103.5029
L205.1858 104.1681
" />
<path d="M205.1858 104.1681
L205.2463 104.2891
" />
<path d="M205.2463 104.2891
L205.3673 104.3495
" />
<path d="M205.3673 104.3495
L205.5487 104.3495
" />
<path d="M205.5487 104.3495
L205.6696 104.2891
" />
<path d="M205.6696 104.2891
L205.7301 104.2286
" />
<path d="M206.5163 104.3495
L206.3953 104.2891
" />
<path d="M206.3953 104.2891
L206.3348 104.1681
" />
<path d="M206.3348 104.1681
L206.3348 103.0795
" />
<path d="M206.8186 103.5029
L207.3024 103.5029
" />
<path d="M207.0000 103.0795
L207.0000 104.1681
" />
<path d="M207.0000 104.1681
L207.0605 104.2891
" />
<path d="M207.0605 104.2891
L207.1815 104.3495
" />
<path d="M207.1815 104.3495
L207.3024 104.3495
" />
</g></g>
<g style="fill:none; 
stroke:#505050; stroke-width:0.1524; stroke-opacity:1; 
stroke-linecap:round; stroke-linejoin:round;">
<text x="205.6092" y="106.7250"
textLength="9.8792" font-size="1.6933" lengthAdjust="spacingAndGlyphs"
text-anchor="middle" opacity="0" stroke-opacity="0">0.1 mohm</text>
<g class="stroked-text"><desc>0.1 mohm</desc>
<path d="M201.3154 105.3995
L201.4364 105.3995
" />
<path d="M201.4364 105.3995
L201.5573 105.4600
" />
<path d="M201.5573 105.4600
L201.6178 105.5205
" />
<path d="M201.6178 105.5205
L201.6783 105.6414
" />
<path d="M201.6783 105.6414
L201.7388 105.8833
" />
<path d="M201.7388 105.8833
L201.7388 106.1857
" />
<path d="M201.7388 106.1857
L201.6783 106.4276
" />
<path d="M201.6783 106.4276
L201.6178 106.5486
" />
<path d="M201.6178 106.5486
L201.5573 106.6091
" />
<path d="M201.5573 106.6091
L201.4364 106.6695
" />
<path d="M201.4364 106.6695
L201.3154 106.6695
" />
<path d="M201.3154 106.6695
L201.1945 106.6091
" />
<path d="M201.1945 106.6091
L201.1340 106.5486
" />
<path d="M201.1340 106.5486
L201.0735 106.4276
" />
<path d="M201.0735 106.4276
L201.0131 106.1857
" />
<path d="M201.0131 106.1857
L201.0131 105.8833
" />
<path d="M201.0131 105.8833
L201.0735 105.6414
" />
<path d="M201.0735 105.6414
L201.1340 105.5205
" />
<path d="M201.1340 105.5205
L201.1945 105.4600
" />
<path d="M201.1945 105.4600
L201.3154 105.3995
" />
<path d="M202.2830 106.5486
L202.3435 106.6091
" />
<path d="M202.3435 106.6091
L202.2830 106.6695
" />
<path d="M202.2830 106.6695
L202.2226 106.6091
" />
<path d="M202.2226 106.6091
L202.2830 106.5486
" />
<path d="M202.2830 106.5486
L202.2830 106.6695
" />
<path d="M203.5531 106.6695
L202.8274 106.6695
" />
<path d="M203.1902 106.6695
L203.1902 105.3995
" />
<path d="M203.1902 105.3995
L203.0693 105.5810
" />
<path d="M203.0693 105.5810
L202.9483 105.7019
" />
<path d="M202.9483 105.7019
L202.8274 105.7624
" />
<path d="M205.0649 106.6695
L205.0649 105.8229
" />
<path d="M205.0649 105.9438
L205.1254 105.8833
" />
<path d="M205.1254 105.8833
L205.2464 105.8229
" />
<path d="M205.2464 105.8229
L205.4278 105.8229
" />
<path d="M205.4278 105.8229
L205.5487 105.8833
" />
<path d="M205.5487 105.8833
L205.6092 106.0043
" />
<path d="M205.6092 106.0043
L205.6092 106.6695
" />
<path d="M205.6092 106.0043
L205.6697 105.8833
" />
<path d="M205.6697 105.8833
L205.7906 105.8229
" />
<path d="M205.7906 105.8229
L205.9721 105.8229
" />
<path d="M205.9721 105.8229
L206.0930 105.8833
" />
<path d="M206.0930 105.8833
L206.1535 106.0043
" />
<path d="M206.1535 106.0043
L206.1535 106.6695
" />
<path d="M206.9397 106.6695
L206.8187 106.6091
" />
<path d="M206.8187 106.6091
L206.7582 106.5486
" />
<path d="M206.7582 106.5486
L206.6978 106.4276
" />
<path d="M206.6978 106.4276
L206.6978 106.0648
" />
<path d="M206.6978 106.0648
L206.7582 105.9438
" />
<path d="M206.7582 105.9438
L206.8187 105.8833
" />
<path d="M206.8187 105.8833
L206.9397 105.8229
" />
<path d="M206.9397 105.8229
L207.1211 105.8229
" />
<path d="M207.1211 105.8229
L207.2420 105.8833
" />
<path d="M207.2420 105.8833
L207.3025 105.9438
" />
<path d="M207.3025 105.9438
L207.3630 106.0648
" />
<path d="M207.3630 106.0648
L207.3630 106.4276
" />
<path d="M207.3630 106.4276
L207.3025 106.5486
" />
<path d="M207.3025 106.5486
L207.2420 106.6091
" />
<path d="M207.2420 106.6091
L207.1211 106.6695
" />
<path d="M207.1211 106.6695
L206.9397 106.6695
" />
<path d="M207.9072 106.6695
L207.9072 105.3995
" />
<path d="M208.4515 106.6695
L208.4515 106.0043
" />
<path d="M208.4515 106.0043
L208.3910 105.8833
" />
<path d="M208.3910 105.8833
L208.2701 105.8229
" />
<path d="M208.2701 105.8229
L208.0887 105.8229
" />
<path d="M208.0887 105.8229
L207.9677 105.8833
" />
<path d="M207.9677 105.8833
L207.9072 105.9438
" />
<path d="M209.0562 106.6695
L209.0562 105.8229
" />
<path d="M209.0562 105.9438
L209.1167 105.8833
" />
<path d="M209.1167 105.8833
L209.2377 105.8229
" />
<path d="M209.2377 105.8229
L209.4191 105.8229
" />
<path d="M209.4191 105.8229
L209.5400 105.8833
" />
<path d="M209.5400 105.8833
L209.6005 106.0043
" />
<path d="M209.6005 106.0043
L209.6005 106.6695
" />
<path d="M209.6005 106.0043
L209.6610 105.8833
" />
<path d="M209.6610 105.8833
L209.7819 105.8229
" />
<path d="M209.7819 105.8229
L209.9634 105.8229
" />
<path d="M209.9634 105.8229
L210.0843 105.8833
" />
<path d="M210.0843 105.8833
L210.1448 106.0043
" />
<path d="M210.1448 106.0043
L210.1448 106.6695
" />
</g></g>
<g style="fill:none; 
stroke:#141414; stroke-width:0.1524; stroke-opacity:1; 
stroke-linecap:round; stroke-linejoin:round;">
<path d="M162.5600 95.2500 A0.6350 0.6350 0.0 0 0 161.2900 95.2500" />
<path d="M163.8300 95.2500 A0.6350 0.6350 0.0 0 0 162.5600 95.2500" />
<path d="M165.1000 95.2500 A0.6350 0.6350 0.0 0 0 163.8300 95.2500" />
<path d="M166.3700 95.2500 A0.6350 0.6350 0.0 0 0 165.1000 95.2500" />
</g>
<g style="fill:none; 
stroke:#8C8C8C; stroke-width:0.1524; stroke-opacity:1; 
stroke-linecap:round; stroke-linejoin:round;">
<path d="M161.2900 95.2500
L160.0200 95.2500
" />
<path d="M166.3700 95.2500
L167.6400 95.2500
" />
</g>
<g style="fill:none; 
stroke:#282828; stroke-width:0.1524; stroke-opacity:1; 
stroke-linecap:round; stroke-linejoin:round;">
<text x="163.8299" y="92.0749"
textLength="7.3393" font-size="1.6933" lengthAdjust="spacingAndGlyphs"
text-anchor="middle" opacity="0" stroke-opacity="0">L_cable</text>
<g class="stroked-text"><desc>L_cable</desc>
<path d="M161.1690 92.0194
L160.5642 92.0194
" />
<path d="M160.5642 92.0194
L160.5642 90.7494
" />
<path d="M161.2900 92.1404
L162.2576 92.1404
" />
<path d="M163.1042 91.9590
L162.9833 92.0194
" />
<path d="M162.9833 92.0194
L162.7414 92.0194
" />
<path d="M162.7414 92.0194
L162.6204 91.9590
" />
<path d="M162.6204 91.9590
L162.5599 91.8985
" />
<path d="M162.5599 91.8985
L162.4995 91.7775
" />
<path d="M162.4995 91.7775
L162.4995 91.4147
" />
<path d="M162.4995 91.4147
L162.5599 91.2937
" />
<path d="M162.5599 91.2937
L162.6204 91.2332
" />
<path d="M162.6204 91.2332
L162.7414 91.1728
" />
<path d="M162.7414 91.1728
L162.9833 91.1728
" />
<path d="M162.9833 91.1728
L163.1042 91.2332
" />
<path d="M164.1928 92.0194
L164.1928 91.3542
" />
<path d="M164.1928 91.3542
L164.1323 91.2332
" />
<path d="M164.1323 91.2332
L164.0114 91.1728
" />
<path d="M164.0114 91.1728
L163.7695 91.1728
" />
<path d="M163.7695 91.1728
L163.6485 91.2332
" />
<path d="M164.1928 91.9590
L164.0719 92.0194
" />
<path d="M164.0719 92.0194
L163.7695 92.0194
" />
<path d="M163.7695 92.0194
L163.6485 91.9590
" />
<path d="M163.6485 91.9590
L163.5881 91.8380
" />
<path d="M163.5881 91.8380
L163.5881 91.7170
" />
<path d="M163.5881 91.7170
L163.6485 91.5961
" />
<path d="M163.6485 91.5961
L163.7695 91.5356
" />
<path d="M163.7695 91.5356
L164.0719 91.5356
" />
<path d="M164.0719 91.5356
L164.1928 91.4751
" />
<path d="M164.7975 92.0194
L164.7975 90.7494
" />
<path d="M164.7975 91.2332
L164.9185 91.1728
" />
<path d="M164.9185 91.1728
L165.1604 91.1728
" />
<path d="M165.1604 91.1728
L165.2813 91.2332
" />
<path d="M165.2813 91.2332
L165.3418 91.2937
" />
<path d="M165.3418 91.2937
L165.4023 91.4147
" />
<path d="M165.4023 91.4147
L165.4023 91.7775
" />
<path d="M165.4023 91.7775
L165.3418 91.8985
" />
<path d="M165.3418 91.8985
L165.2813 91.9590
" />
<path d="M165.2813 91.9590
L165.1604 92.0194
" />
<path d="M165.1604 92.0194
L164.9185 92.0194
" />
<path d="M164.9185 92.0194
L164.7975 91.9590
" />
<path d="M166.1280 92.0194
L166.0070 91.9590
" />
<path d="M166.0070 91.9590
L165.9465 91.8380
" />
<path d="M165.9465 91.8380
L165.9465 90.7494
" />
<path d="M167.0955 91.9590
L166.9746 92.0194
" />
<path d="M166.9746 92.0194
L166.7327 92.0194
" />
<path d="M166.7327 92.0194
L166.6117 91.9590
" />
<path d="M166.6117 91.9590
L166.5513 91.8380
" />
<path d="M166.5513 91.8380
L166.5513 91.3542
" />
<path d="M166.5513 91.3542
L166.6117 91.2332
" />
<path d="M166.6117 91.2332
L166.7327 91.1728
" />
<path d="M166.7327 91.1728
L166.9746 91.1728
" />
<path d="M166.9746 91.1728
L167.0955 91.2332
" />
<path d="M167.0955 91.2332
L167.1560 91.3542
" />
<path d="M167.1560 91.3542
L167.1560 91.4751
" />
<path d="M167.1560 91.4751
L166.5513 91.5961
" />
</g></g>
<g style="fill:none; 
stroke:#505050; stroke-width:0.1524; stroke-opacity:1; 
stroke-linecap:round; stroke-linejoin:round;">
<text x="163.8300" y="94.1349"
textLength="4.8598" font-size="1.6933" lengthAdjust="spacingAndGlyphs"
text-anchor="middle" opacity="0" stroke-opacity="0">3 uH</text>
<g class="stroked-text"><desc>3 uH</desc>
<path d="M161.6831 92.8094
L162.4693 92.8094
" />
<path d="M162.4693 92.8094
L162.0459 93.2932
" />
<path d="M162.0459 93.2932
L162.2274 93.2932
" />
<path d="M162.2274 93.2932
L162.3483 93.3537
" />
<path d="M162.3483 93.3537
L162.4088 93.4142
" />
<path d="M162.4088 93.4142
L162.4693 93.5351
" />
<path d="M162.4693 93.5351
L162.4693 93.8375
" />
<path d="M162.4693 93.8375
L162.4088 93.9585
" />
<path d="M162.4088 93.9585
L162.3483 94.0190
" />
<path d="M162.3483 94.0190
L162.2274 94.0794
" />
<path d="M162.2274 94.0794
L161.8645 94.0794
" />
<path d="M161.8645 94.0794
L161.7436 94.0190
" />
<path d="M161.7436 94.0190
L161.6831 93.9585
" />
<path d="M164.5254 93.2328
L164.5254 94.0794
" />
<path d="M163.9811 93.2328
L163.9811 93.8980
" />
<path d="M163.9811 93.8980
L164.0416 94.0190
" />
<path d="M164.0416 94.0190
L164.1626 94.0794
" />
<path d="M164.1626 94.0794
L164.3440 94.0794
" />
<path d="M164.3440 94.0794
L164.4649 94.0190
" />
<path d="M164.4649 94.0190
L164.5254 93.9585
" />
<path d="M165.1301 94.0794
L165.1301 92.8094
" />
<path d="M165.1301 93.4142
L165.8558 93.4142
" />
<path d="M165.8558 94.0794
L165.8558 92.8094
" />
</g></g>
<g style="fill:none; 
stroke:#141414; stroke-width:0.2540; stroke-opacity:1; 
stroke-linecap:round; stroke-linejoin:round;">
<rect x="182.880000" y="94.234000" width="5.080000" height="2.032000" rx="0.000000" />
</g>
<g style="fill:none; 
stroke:#8C8C8C; stroke-width:0.1524; stroke-opacity:1; 
stroke-linecap:round; stroke-linejoin:round;">
<path d="M182.8800 95.2500
L181.6100 95.2500
" />
<path d="M187.9600 95.2500
L189.2300 95.2500
" />
</g>
<g style="fill:none; 
stroke:#282828; stroke-width:0.1524; stroke-opacity:1; 
stroke-linecap:round; stroke-linejoin:round;">
<text x="185.4200" y="92.0749"
textLength="7.5812" font-size="1.6933" lengthAdjust="spacingAndGlyphs"
text-anchor="middle" opacity="0" stroke-opacity="0">R_cable</text>
<g class="stroked-text"><desc>R_cable</desc>
<path d="M182.7590 92.0194
L182.3357 91.4147
" />
<path d="M182.0333 92.0194
L182.0333 90.7494
" />
<path d="M182.0333 90.7494
L182.5171 90.7494
" />
<path d="M182.5171 90.7494
L182.6381 90.8099
" />
<path d="M182.6381 90.8099
L182.6986 90.8704
" />
<path d="M182.6986 90.8704
L182.7590 90.9913
" />
<path d="M182.7590 90.9913
L182.7590 91.1728
" />
<path d="M182.7590 91.1728
L182.6986 91.2937
" />
<path d="M182.6986 91.2937
L182.6381 91.3542
" />
<path d="M182.6381 91.3542
L182.5171 91.4147
" />
<path d="M182.5171 91.4147
L182.0333 91.4147
" />
<path d="M183.0010 92.1404
L183.9686 92.1404
" />
<path d="M184.8152 91.9590
L184.6943 92.0194
" />
<path d="M184.6943 92.0194
L184.4524 92.0194
" />
<path d="M184.4524 92.0194
L184.3314 91.9590
" />
<path d="M184.3314 91.9590
L184.2709 91.8985
" />
<path d="M184.2709 91.8985
L184.2105 91.7775
" />
<path d="M184.2105 91.7775
L184.2105 91.4147
" />
<path d="M184.2105 91.4147
L184.2709 91.2937
" />
<path d="M184.2709 91.2937
L184.3314 91.2332
" />
<path d="M184.3314 91.2332
L184.4524 91.1728
" />
<path d="M184.4524 91.1728
L184.6943 91.1728
" />
<path d="M184.6943 91.1728
L184.8152 91.2332
" />
<path d="M185.9038 92.0194
L185.9038 91.3542
" />
<path d="M185.9038 91.3542
L185.8433 91.2332
" />
<path d="M185.8433 91.2332
L185.7224 91.1728
" />
<path d="M185.7224 91.1728
L185.4805 91.1728
" />
<path d="M185.4805 91.1728
L185.3595 91.2332
" />
<path d="M185.9038 91.9590
L185.7829 92.0194
" />
<path d="M185.7829 92.0194
L185.4805 92.0194
" />
<path d="M185.4805 92.0194
L185.3595 91.9590
" />
<path d="M185.3595 91.9590
L185.2991 91.8380
" />
<path d="M185.2991 91.8380
L185.2991 91.7170
" />
<path d="M185.2991 91.7170
L185.3595 91.5961
" />
<path d="M185.3595 91.5961
L185.4805 91.5356
" />
<path d="M185.4805 91.5356
L185.7829 91.5356
" />
<path d="M185.7829 91.5356
L185.9038 91.4751
" />
<path d="M186.5085 92.0194
L186.5085 90.7494
" />
<path d="M186.5085 91.2332
L186.6295 91.1728
" />
<path d="M186.6295 91.1728
L186.8714 91.1728
" />
<path d="M186.8714 91.1728
L186.9923 91.2332
" />
<path d="M186.9923 91.2332
L187.0528 91.2937
" />
<path d="M187.0528 91.2937
L187.1133 91.4147
" />
<path d="M187.1133 91.4147
L187.1133 91.7775
" />
<path d="M187.1133 91.7775
L187.0528 91.8985
" />
<path d="M187.0528 91.8985
L186.9923 91.9590
" />
<path d="M186.9923 91.9590
L186.8714 92.0194
" />
<path d="M186.8714 92.0194
L186.6295 92.0194
" />
<path d="M186.6295 92.0194
L186.5085 91.9590
" />
<path d="M187.8390 92.0194
L187.7180 91.9590
" />
<path d="M187.7180 91.9590
L187.6575 91.8380
" />
<path d="M187.6575 91.8380
L187.6575 90.7494
" />
<path d="M188.8065 91.9590
L188.6856 92.0194
" />
<path d="M188.6856 92.0194
L188.4437 92.0194
" />
<path d="M188.4437 92.0194
L188.3227 91.9590
" />
<path d="M188.3227 91.9590
L188.2623 91.8380
" />
<path d="M188.2623 91.8380
L188.2623 91.3542
" />
<path d="M188.2623 91.3542
L188.3227 91.2332
" />
<path d="M188.3227 91.2332
L188.4437 91.1728
" />
<path d="M188.4437 91.1728
L188.6856 91.1728
" />
<path d="M188.6856 91.1728
L188.8065 91.2332
" />
<path d="M188.8065 91.2332
L188.8670 91.3542
" />
<path d="M188.8670 91.3542
L188.8670 91.4751
" />
<path d="M188.8670 91.4751
L188.2623 91.5961
" />
</g></g>
<g style="fill:none; 
stroke:#505050; stroke-width:0.1524; stroke-opacity:1; 
stroke-linecap:round; stroke-linejoin:round;">
<text x="185.4199" y="94.1349"
textLength="8.0649" font-size="1.6933" lengthAdjust="spacingAndGlyphs"
text-anchor="middle" opacity="0" stroke-opacity="0">8 mohm</text>
<g class="stroked-text"><desc>8 mohm</desc>
<path d="M181.9729 93.3537
L181.8519 93.2932
" />
<path d="M181.8519 93.2932
L181.7914 93.2328
" />
<path d="M181.7914 93.2328
L181.7310 93.1118
" />
<path d="M181.7310 93.1118
L181.7310 93.0513
" />
<path d="M181.7310 93.0513
L181.7914 92.9304
" />
<path d="M181.7914 92.9304
L181.8519 92.8699
" />
<path d="M181.8519 92.8699
L181.9729 92.8094
" />
<path d="M181.9729 92.8094
L182.2148 92.8094
" />
<path d="M182.2148 92.8094
L182.3357 92.8699
" />
<path d="M182.3357 92.8699
L182.3962 92.9304
" />
<path d="M182.3962 92.9304
L182.4567 93.0513
" />
<path d="M182.4567 93.0513
L182.4567 93.1118
" />
<path d="M182.4567 93.1118
L182.3962 93.2328
" />
<path d="M182.3962 93.2328
L182.3357 93.2932
" />
<path d="M182.3357 93.2932
L182.2148 93.3537
" />
<path d="M182.2148 93.3537
L181.9729 93.3537
" />
<path d="M181.9729 93.3537
L181.8519 93.4142
" />
<path d="M181.8519 93.4142
L181.7914 93.4747
" />
<path d="M181.7914 93.4747
L181.7310 93.5956
" />
<path d="M181.7310 93.5956
L181.7310 93.8375
" />
<path d="M181.7310 93.8375
L181.7914 93.9585
" />
<path d="M181.7914 93.9585
L181.8519 94.0190
" />
<path d="M181.8519 94.0190
L181.9729 94.0794
" />
<path d="M181.9729 94.0794
L182.2148 94.0794
" />
<path d="M182.2148 94.0794
L182.3357 94.0190
" />
<path d="M182.3357 94.0190
L182.3962 93.9585
" />
<path d="M182.3962 93.9585
L182.4567 93.8375
" />
<path d="M182.4567 93.8375
L182.4567 93.5956
" />
<path d="M182.4567 93.5956
L182.3962 93.4747
" />
<path d="M182.3962 93.4747
L182.3357 93.4142
" />
<path d="M182.3357 93.4142
L182.2148 93.3537
" />
<path d="M183.9685 94.0794
L183.9685 93.2328
" />
<path d="M183.9685 93.3537
L184.0290 93.2932
" />
<path d="M184.0290 93.2932
L184.1500 93.2328
" />
<path d="M184.1500 93.2328
L184.3314 93.2328
" />
<path d="M184.3314 93.2328
L184.4523 93.2932
" />
<path d="M184.4523 93.2932
L184.5128 93.4142
" />
<path d="M184.5128 93.4142
L184.5128 94.0794
" />
<path d="M184.5128 93.4142
L184.5733 93.2932
" />
<path d="M184.5733 93.2932
L184.6942 93.2328
" />
<path d="M184.6942 93.2328
L184.8757 93.2328
" />
<path d="M184.8757 93.2328
L184.9966 93.2932
" />
<path d="M184.9966 93.2932
L185.0571 93.4142
" />
<path d="M185.0571 93.4142
L185.0571 94.0794
" />
<path d="M185.8433 94.0794
L185.7223 94.0190
" />
<path d="M185.7223 94.0190
L185.6618 93.9585
" />
<path d="M185.6618 93.9585
L185.6014 93.8375
" />
<path d="M185.6014 93.8375
L185.6014 93.4747
" />
<path d="M185.6014 93.4747
L185.6618 93.3537
" />
<path d="M185.6618 93.3537
L185.7223 93.2932
" />
<path d="M185.7223 93.2932
L185.8433 93.2328
" />
<path d="M185.8433 93.2328
L186.0247 93.2328
" />
<path d="M186.0247 93.2328
L186.1456 93.2932
" />
<path d="M186.1456 93.2932
L186.2061 93.3537
" />
<path d="M186.2061 93.3537
L186.2666 93.4747
" />
<path d="M186.2666 93.4747
L186.2666 93.8375
" />
<path d="M186.2666 93.8375
L186.2061 93.9585
" />
<path d="M186.2061 93.9585
L186.1456 94.0190
" />
<path d="M186.1456 94.0190
L186.0247 94.0794
" />
<path d="M186.0247 94.0794
L185.8433 94.0794
" />
<path d="M186.8108 94.0794
L186.8108 92.8094
" />
<path d="M187.3551 94.0794
L187.3551 93.4142
" />
<path d="M187.3551 93.4142
L187.2946 93.2932
" />
<path d="M187.2946 93.2932
L187.1737 93.2328
" />
<path d="M187.1737 93.2328
L186.9923 93.2328
" />
<path d="M186.9923 93.2328
L186.8713 93.2932
" />
<path d="M186.8713 93.2932
L186.8108 93.3537
" />
<path d="M187.9598 94.0794
L187.9598 93.2328
" />
<path d="M187.9598 93.3537
L188.0203 93.2932
" />
<path d="M188.0203 93.2932
L188.1413 93.2328
" />
<path d="M188.1413 93.2328
L188.3227 93.2328
" />
<path d="M188.3227 93.2328
L188.4436 93.2932
" />
<path d="M188.4436 93.2932
L188.5041 93.4142
" />
<path d="M188.5041 93.4142
L188.5041 94.0794
" />
<path d="M188.5041 93.4142
L188.5646 93.2932
" />
<path d="M188.5646 93.2932
L188.6855 93.2328
" />
<path d="M188.6855 93.2328
L188.8670 93.2328
" />
<path d="M188.8670 93.2328
L188.9879 93.2932
" />
<path d="M188.9879 93.2932
L189.0484 93.4142
" />
<path d="M189.0484 93.4142
L189.0484 94.0794
" />
</g></g>
<g style="fill:none; 
stroke:#141414; stroke-width:0.2540; stroke-opacity:1; 
stroke-linecap:round; stroke-linejoin:round;">
<rect x="139.700000" y="94.234000" width="5.080000" height="2.032000" rx="0.000000" />
</g>
<g style="fill:none; 
stroke:#8C8C8C; stroke-width:0.1524; stroke-opacity:1; 
stroke-linecap:round; stroke-linejoin:round;">
<path d="M139.7000 95.2500
L138.4300 95.2500
" />
<path d="M144.7800 95.2500
L146.0500 95.2500
" />
</g>
<g style="fill:none; 
stroke:#282828; stroke-width:0.1524; stroke-opacity:1; 
stroke-linecap:round; stroke-linejoin:round;">
<text x="142.2400" y="92.0749"
textLength="6.4322" font-size="1.6933" lengthAdjust="spacingAndGlyphs"
text-anchor="middle" opacity="0" stroke-opacity="0">R_fuse</text>
<g class="stroked-text"><desc>R_fuse</desc>
<path d="M140.1535 92.0194
L139.7302 91.4147
" />
<path d="M139.4278 92.0194
L139.4278 90.7494
" />
<path d="M139.4278 90.7494
L139.9116 90.7494
" />
<path d="M139.9116 90.7494
L140.0326 90.8099
" />
<path d="M140.0326 90.8099
L140.0931 90.8704
" />
<path d="M140.0931 90.8704
L140.1535 90.9913
" />
<path d="M140.1535 90.9913
L140.1535 91.1728
" />
<path d="M140.1535 91.1728
L140.0931 91.2937
" />
<path d="M140.0931 91.2937
L140.0326 91.3542
" />
<path d="M140.0326 91.3542
L139.9116 91.4147
" />
<path d="M139.9116 91.4147
L139.4278 91.4147
" />
<path d="M140.3955 92.1404
L141.3631 92.1404
" />
<path d="M141.4840 91.1728
L141.9678 91.1728
" />
<path d="M141.6654 92.0194
L141.6654 90.9309
" />
<path d="M141.6654 90.9309
L141.7259 90.8099
" />
<path d="M141.7259 90.8099
L141.8469 90.7494
" />
<path d="M141.8469 90.7494
L141.9678 90.7494
" />
<path d="M142.9354 91.1728
L142.9354 92.0194
" />
<path d="M142.3911 91.1728
L142.3911 91.8380
" />
<path d="M142.3911 91.8380
L142.4516 91.9590
" />
<path d="M142.4516 91.9590
L142.5726 92.0194
" />
<path d="M142.5726 92.0194
L142.7540 92.0194
" />
<path d="M142.7540 92.0194
L142.8749 91.9590
" />
<path d="M142.8749 91.9590
L142.9354 91.8985
" />
<path d="M143.4797 91.9590
L143.6006 92.0194
" />
<path d="M143.6006 92.0194
L143.8425 92.0194
" />
<path d="M143.8425 92.0194
L143.9635 91.9590
" />
<path d="M143.9635 91.9590
L144.0239 91.8380
" />
<path d="M144.0239 91.8380
L144.0239 91.7775
" />
<path d="M144.0239 91.7775
L143.9635 91.6566
" />
<path d="M143.9635 91.6566
L143.8425 91.5961
" />
<path d="M143.8425 91.5961
L143.6611 91.5961
" />
<path d="M143.6611 91.5961
L143.5401 91.5356
" />
<path d="M143.5401 91.5356
L143.4797 91.4147
" />
<path d="M143.4797 91.4147
L143.4797 91.3542
" />
<path d="M143.4797 91.3542
L143.5401 91.2332
" />
<path d="M143.5401 91.2332
L143.6611 91.1728
" />
<path d="M143.6611 91.1728
L143.8425 91.1728
" />
<path d="M143.8425 91.1728
L143.9635 91.2332
" />
<path d="M145.0520 91.9590
L144.9311 92.0194
" />
<path d="M144.9311 92.0194
L144.6892 92.0194
" />
<path d="M144.6892 92.0194
L144.5682 91.9590
" />
<path d="M144.5682 91.9590
L144.5078 91.8380
" />
<path d="M144.5078 91.8380
L144.5078 91.3542
" />
<path d="M144.5078 91.3542
L144.5682 91.2332
" />
<path d="M144.5682 91.2332
L144.6892 91.1728
" />
<path d="M144.6892 91.1728
L144.9311 91.1728
" />
<path d="M144.9311 91.1728
L145.0520 91.2332
" />
<path d="M145.0520 91.2332
L145.1125 91.3542
" />
<path d="M145.1125 91.3542
L145.1125 91.4751
" />
<path d="M145.1125 91.4751
L144.5078 91.5961
" />
</g></g>
<g style="fill:none; 
stroke:#505050; stroke-width:0.1524; stroke-opacity:1; 
stroke-linecap:round; stroke-linejoin:round;">
<text x="142.2399" y="94.1349"
textLength="8.0649" font-size="1.6933" lengthAdjust="spacingAndGlyphs"
text-anchor="middle" opacity="0" stroke-opacity="0">1 mohm</text>
<g class="stroked-text"><desc>1 mohm</desc>
<path d="M139.2767 94.0794
L138.5510 94.0794
" />
<path d="M138.9138 94.0794
L138.9138 92.8094
" />
<path d="M138.9138 92.8094
L138.7929 92.9909
" />
<path d="M138.7929 92.9909
L138.6719 93.1118
" />
<path d="M138.6719 93.1118
L138.5510 93.1723
" />
<path d="M140.7885 94.0794
L140.7885 93.2328
" />
<path d="M140.7885 93.3537
L140.8490 93.2932
" />
<path d="M140.8490 93.2932
L140.9700 93.2328
" />
<path d="M140.9700 93.2328
L141.1514 93.2328
" />
<path d="M141.1514 93.2328
L141.2723 93.2932
" />
<path d="M141.2723 93.2932
L141.3328 93.4142
" />
<path d="M141.3328 93.4142
L141.3328 94.0794
" />
<path d="M141.3328 93.4142
L141.3933 93.2932
" />
<path d="M141.3933 93.2932
L141.5142 93.2328
" />
<path d="M141.5142 93.2328
L141.6957 93.2328
" />
<path d="M141.6957 93.2328
L141.8166 93.2932
" />
<path d="M141.8166 93.2932
L141.8771 93.4142
" />
<path d="M141.8771 93.4142
L141.8771 94.0794
" />
<path d="M142.6633 94.0794
L142.5423 94.0190
" />
<path d="M142.5423 94.0190
L142.4818 93.9585
" />
<path d="M142.4818 93.9585
L142.4214 93.8375
" />
<path d="M142.4214 93.8375
L142.4214 93.4747
" />
<path d="M142.4214 93.4747
L142.4818 93.3537
" />
<path d="M142.4818 93.3537
L142.5423 93.2932
" />
<path d="M142.5423 93.2932
L142.6633 93.2328
" />
<path d="M142.6633 93.2328
L142.8447 93.2328
" />
<path d="M142.8447 93.2328
L142.9656 93.2932
" />
<path d="M142.9656 93.2932
L143.0261 93.3537
" />
<path d="M143.0261 93.3537
L143.0866 93.4747
" />
<path d="M143.0866 93.4747
L143.0866 93.8375
" />
<path d="M143.0866 93.8375
L143.0261 93.9585
" />
<path d="M143.0261 93.9585
L142.9656 94.0190
" />
<path d="M142.9656 94.0190
L142.8447 94.0794
" />
<path d="M142.8447 94.0794
L142.6633 94.0794
" />
<path d="M143.6308 94.0794
L143.6308 92.8094
" />
<path d="M144.1751 94.0794
L144.1751 93.4142
" />
<path d="M144.1751 93.4142
L144.1146 93.2932
" />
<path d="M144.1146 93.2932
L143.9937 93.2328
" />
<path d="M143.9937 93.2328
L143.8123 93.2328
" />
<path d="M143.8123 93.2328
L143.6913 93.2932
" />
<path d="M143.6913 93.2932
L143.6308 93.3537
" />
<path d="M144.7798 94.0794
L144.7798 93.2328
" />
<path d="M144.7798 93.3537
L144.8403 93.2932
" />
<path d="M144.8403 93.2932
L144.9613 93.2328
" />
<path d="M144.9613 93.2328
L145.1427 93.2328
" />
<path d="M145.1427 93.2328
L145.2636 93.2932
" />
<path d="M145.2636 93.2932
L145.3241 93.4142
" />
<path d="M145.3241 93.4142
L145.3241 94.0794
" />
<path d="M145.3241 93.4142
L145.3846 93.2932
" />
<path d="M145.3846 93.2932
L145.5055 93.2328
" />
<path d="M145.5055 93.2328
L145.6870 93.2328
" />
<path d="M145.6870 93.2328
L145.8079 93.2932
" />
<path d="M145.8079 93.2932
L145.8684 93.4142
" />
<path d="M145.8684 93.4142
L145.8684 94.0794
" />
</g><path style="fill:none; 
stroke:#141414; stroke-width:0.1524; stroke-opacity:1; 
stroke-linecap:round; stroke-linejoin:round;fill:none"
d="M 147.3200,115.5700
148.5900,116.8400
149.8600,115.5700
Z" /> 
</g>
<g style="fill:none; 
stroke:#8C8C8C; stroke-width:0.1524; stroke-opacity:1; 
stroke-linecap:round; stroke-linejoin:round;">
<path d="M148.5900 115.5700
L148.5900 115.5700
" />
</g>
<g style="fill:none; 
stroke:#505050; stroke-width:0.1524; stroke-opacity:1; 
stroke-linecap:round; stroke-linejoin:round;">
<text x="148.5900" y="118.7450"
textLength="1.4127" font-size="1.6933" lengthAdjust="spacingAndGlyphs"
text-anchor="middle" opacity="0" stroke-opacity="0">0</text>
<g class="stroked-text"><desc>0</desc>
<path d="M148.5295 117.4195
L148.6505 117.4195
" />
<path d="M148.6505 117.4195
L148.7714 117.4800
" />
<path d="M148.7714 117.4800
L148.8319 117.5405
" />
<path d="M148.8319 117.5405
L148.8924 117.6614
" />
<path d="M148.8924 117.6614
L148.9529 117.9033
" />
<path d="M148.9529 117.9033
L148.9529 118.2057
" />
<path d="M148.9529 118.2057
L148.8924 118.4476
" />
<path d="M148.8924 118.4476
L148.8319 118.5686
" />
<path d="M148.8319 118.5686
L148.7714 118.6291
" />
<path d="M148.7714 118.6291
L148.6505 118.6895
" />
<path d="M148.6505 118.6895
L148.5295 118.6895
" />
<path d="M148.5295 118.6895
L148.4086 118.6291
" />
<path d="M148.4086 118.6291
L148.3481 118.5686
" />
<path d="M148.3481 118.5686
L148.2876 118.4476
" />
<path d="M148.2876 118.4476
L148.2272 118.2057
" />
<path d="M148.2272 118.2057
L148.2272 117.9033
" />
<path d="M148.2272 117.9033
L148.2876 117.6614
" />
<path d="M148.2876 117.6614
L148.3481 117.5405
" />
<path d="M148.3481 117.5405
L148.4086 117.4800
" />
<path d="M148.4086 117.4800
L148.5295 117.4195
" />
</g><path style="fill:none; 
stroke:#141414; stroke-width:0.1524; stroke-opacity:1; 
stroke-linecap:round; stroke-linejoin:round;fill:none"
d="M 139.7000,115.5700
139.7000,116.8400
140.7160,117.4750
139.7000,118.1100
138.6840,117.4750
139.7000,116.8400
" /> 
</g>
<g style="fill:none; 
stroke:#8C8C8C; stroke-width:0.1524; stroke-opacity:1; 
stroke-linecap:round; stroke-linejoin:round;">
<path d="M139.7000 115.5700
L139.7000 115.5700
" />
</g>
<g style="fill:none; 
stroke:#505050; stroke-width:0.1524; stroke-opacity:1; 
stroke-linecap:round; stroke-linejoin:round;">
<text x="139.6999" y="120.6243"
textLength="9.6375" font-size="1.6933" lengthAdjust="spacingAndGlyphs"
text-anchor="middle" opacity="0" stroke-opacity="0">PWR_FLAG</text>
<g class="stroked-text"><desc>PWR_FLAG</desc>
<path d="M135.2851 120.5688
L135.2851 119.2988
" />
<path d="M135.2851 119.2988
L135.7689 119.2988
" />
<path d="M135.7689 119.2988
L135.8899 119.3593
" />
<path d="M135.8899 119.3593
L135.9504 119.4198
" />
<path d="M135.9504 119.4198
L136.0108 119.5407
" />
<path d="M136.0108 119.5407
L136.0108 119.7222
" />
<path d="M136.0108 119.7222
L135.9504 119.8431
" />
<path d="M135.9504 119.8431
L135.8899 119.9036
" />
<path d="M135.8899 119.9036
L135.7689 119.9641
" />
<path d="M135.7689 119.9641
L135.2851 119.9641
" />
<path d="M136.4342 119.2988
L136.7366 120.5688
" />
<path d="M136.7366 120.5688
L136.9785 119.6617
" />
<path d="M136.9785 119.6617
L137.2204 120.5688
" />
<path d="M137.2204 120.5688
L137.5228 119.2988
" />
<path d="M138.7322 120.5688
L138.3089 119.9641
" />
<path d="M138.0065 120.5688
L138.0065 119.2988
" />
<path d="M138.0065 119.2988
L138.4903 119.2988
" />
<path d="M138.4903 119.2988
L138.6113 119.3593
" />
<path d="M138.6113 119.3593
L138.6718 119.4198
" />
<path d="M138.6718 119.4198
L138.7322 119.5407
" />
<path d="M138.7322 119.5407
L138.7322 119.7222
" />
<path d="M138.7322 119.7222
L138.6718 119.8431
" />
<path d="M138.6718 119.8431
L138.6113 119.9036
" />
<path d="M138.6113 119.9036
L138.4903 119.9641
" />
<path d="M138.4903 119.9641
L138.0065 119.9641
" />
<path d="M138.9742 120.6898
L139.9418 120.6898
" />
<path d="M140.6675 119.9036
L140.2441 119.9036
" />
<path d="M140.2441 120.5688
L140.2441 119.2988
" />
<path d="M140.2441 119.2988
L140.8489 119.2988
" />
<path d="M141.9375 120.5688
L141.3327 120.5688
" />
<path d="M141.3327 120.5688
L141.3327 119.2988
" />
<path d="M142.3004 120.2060
L142.9051 120.2060
" />
<path d="M142.1794 120.5688
L142.6027 119.2988
" />
<path d="M142.6027 119.2988
L143.0261 120.5688
" />
<path d="M144.1147 119.3593
L143.9937 119.2988
" />
<path d="M143.9937 119.2988
L143.8123 119.2988
" />
<path d="M143.8123 119.2988
L143.6309 119.3593
" />
<path d="M143.6309 119.3593
L143.5099 119.4803
" />
<path d="M143.5099 119.4803
L143.4494 119.6012
" />
<path d="M143.4494 119.6012
L143.3890 119.8431
" />
<path d="M143.3890 119.8431
L143.3890 120.0245
" />
<path d="M143.3890 120.0245
L143.4494 120.2664
" />
<path d="M143.4494 120.2664
L143.5099 120.3874
" />
<path d="M143.5099 120.3874
L143.6309 120.5084
" />
<path d="M143.6309 120.5084
L143.8123 120.5688
" />
<path d="M143.8123 120.5688
L143.9332 120.5688
" />
<path d="M143.9332 120.5688
L144.1147 120.5084
" />
<path d="M144.1147 120.5084
L144.1751 120.4479
" />
<path d="M144.1751 120.4479
L144.1751 120.0245
" />
<path d="M144.1751 120.0245
L143.9332 120.0245
" />
</g></g>
<g style="fill:#F5F5F5; fill-opacity:1.0000; stroke:none;">
<circle cx="101.6000" cy="105.4100" r="2.5400" /> 
<path style="fill:none; 
stroke:#141414; stroke-width:0.1524; stroke-opacity:1; 
stroke-linecap:round; stroke-linejoin:round;fill:none"
d="M 100.3300,105.1560
102.8700,105.1560
" /> 
<path style="fill:none; 
stroke:#141414; stroke-width:0.1524; stroke-opacity:1; 
stroke-linecap:round; stroke-linejoin:round;fill:none"
d="M 100.8380,105.6640
100.3300,105.6640
" /> 
<path style="fill:none; 
stroke:#141414; stroke-width:0.1524; stroke-opacity:1; 
stroke-linecap:round; stroke-linejoin:round;fill:none"
d="M 101.8540,105.6640
101.3460,105.6640
" /> 
<path style="fill:none; 
stroke:#141414; stroke-width:0.1524; stroke-opacity:1; 
stroke-linecap:round; stroke-linejoin:round;fill:none"
d="M 102.8700,105.6640
102.3620,105.6640
" /> 
</g>
<g style="fill:none; 
stroke:#141414; stroke-width:0.2540; stroke-opacity:1; 
stroke-linecap:round; stroke-linejoin:round;">
<circle cx="101.6000" cy="105.4100" r="2.5400" /> 
</g>
<g style="fill:none; 
stroke:#141414; stroke-width:0.1524; stroke-opacity:1; 
stroke-linecap:round; stroke-linejoin:round;">
<text x="101.6000" y="104.1400"
textLength="1.7756" font-size="1.6933" lengthAdjust="spacingAndGlyphs"
text-anchor="middle" opacity="0" stroke-opacity="0">+</text>
<g class="stroked-text"><desc>+</desc>
<path d="M101.1161 103.6007
L102.0838 103.6007
" />
<path d="M101.5999 104.0845
L101.5999 103.1169
" />
</g></g>
<g style="fill:none; 
stroke:#8C8C8C; stroke-width:0.1524; stroke-opacity:1; 
stroke-linecap:round; stroke-linejoin:round;">
<path d="M101.6000 102.8700
L101.6000 100.3300
" />
<path d="M101.6000 107.9500
L101.6000 110.4900
" />
</g>
<g style="fill:none; 
stroke:#282828; stroke-width:0.1524; stroke-opacity:1; 
stroke-linecap:round; stroke-linejoin:round;">
<text x="95.2402" y="103.5050"
textLength="2.5013" font-size="1.6933" lengthAdjust="spacingAndGlyphs"
text-anchor="middle" opacity="0" stroke-opacity="0">V1</text>
<g class="stroked-text"><desc>V1</desc>
<path d="M94.2121 102.1795
L94.6354 103.4495
" />
<path d="M94.6354 103.4495
L95.0588 102.1795
" />
<path d="M96.1474 103.4495
L95.4217 103.4495
" />
<path d="M95.7845 103.4495
L95.7845 102.1795
" />
<path d="M95.7845 102.1795
L95.6636 102.3610
" />
<path d="M95.6636 102.3610
L95.5426 102.4819
" />
<path d="M95.5426 102.4819
L95.4217 102.5424
" />
</g></g>
<g style="fill:none; 
stroke:#505050; stroke-width:0.1524; stroke-opacity:1; 
stroke-linecap:round; stroke-linejoin:round;">
<text x="95.8450" y="105.8150"
textLength="3.7108" font-size="1.6933" lengthAdjust="spacingAndGlyphs"
text-anchor="middle" opacity="0" stroke-opacity="0">48V</text>
<g class="stroked-text"><desc>48V</desc>
<path d="M94.9378 104.9129
L94.9378 105.7595
" />
<path d="M94.6354 104.4291
L94.3331 105.3362
" />
<path d="M94.3331 105.3362
L95.1192 105.3362
" />
<path d="M95.7845 105.0338
L95.6635 104.9733
" />
<path d="M95.6635 104.9733
L95.6030 104.9129
" />
<path d="M95.6030 104.9129
L95.5426 104.7919
" />
<path d="M95.5426 104.7919
L95.5426 104.7314
" />
<path d="M95.5426 104.7314
L95.6030 104.6105
" />
<path d="M95.6030 104.6105
L95.6635 104.5500
" />
<path d="M95.6635 104.5500
L95.7845 104.4895
" />
<path d="M95.7845 104.4895
L96.0264 104.4895
" />
<path d="M96.0264 104.4895
L96.1473 104.5500
" />
<path d="M96.1473 104.5500
L96.2078 104.6105
" />
<path d="M96.2078 104.6105
L96.2683 104.7314
" />
<path d="M96.2683 104.7314
L96.2683 104.7919
" />
<path d="M96.2683 104.7919
L96.2078 104.9129
" />
<path d="M96.2078 104.9129
L96.1473 104.9733
" />
<path d="M96.1473 104.9733
L96.0264 105.0338
" />
<path d="M96.0264 105.0338
L95.7845 105.0338
" />
<path d="M95.7845 105.0338
L95.6635 105.0943
" />
<path d="M95.6635 105.0943
L95.6030 105.1548
" />
<path d="M95.6030 105.1548
L95.5426 105.2757
" />
<path d="M95.5426 105.2757
L95.5426 105.5176
" />
<path d="M95.5426 105.5176
L95.6030 105.6386
" />
<path d="M95.6030 105.6386
L95.6635 105.6991
" />
<path d="M95.6635 105.6991
L95.7845 105.7595
" />
<path d="M95.7845 105.7595
L96.0264 105.7595
" />
<path d="M96.0264 105.7595
L96.1473 105.6991
" />
<path d="M96.1473 105.6991
L96.2078 105.6386
" />
<path d="M96.2078 105.6386
L96.2683 105.5176
" />
<path d="M96.2683 105.5176
L96.2683 105.2757
" />
<path d="M96.2683 105.2757
L96.2078 105.1548
" />
<path d="M96.2078 105.1548
L96.1473 105.0943
" />
<path d="M96.1473 105.0943
L96.0264 105.0338
" />
<path d="M96.6311 104.4895
L97.0544 105.7595
" />
<path d="M97.0544 105.7595
L97.4778 104.4895
" />
</g></g>
<g style="fill:none; 
stroke:#141414; stroke-width:0.2540; stroke-opacity:1; 
stroke-linecap:round; stroke-linejoin:round;">
<rect x="118.110000" y="94.234000" width="5.080000" height="2.032000" rx="0.000000" />
</g>
<g style="fill:none; 
stroke:#8C8C8C; stroke-width:0.1524; stroke-opacity:1; 
stroke-linecap:round; stroke-linejoin:round;">
<path d="M118.1100 95.2500
L116.8400 95.2500
" />
<path d="M123.1900 95.2500
L124.4600 95.2500
" />
</g>
<g style="fill:none; 
stroke:#282828; stroke-width:0.1524; stroke-opacity:1; 
stroke-linecap:round; stroke-linejoin:round;">
<text x="120.6499" y="92.0749"
textLength="8.7303" font-size="1.6933" lengthAdjust="spacingAndGlyphs"
text-anchor="middle" opacity="0" stroke-opacity="0">R_source</text>
<g class="stroked-text"><desc>R_source</desc>
<path d="M117.4144 92.0194
L116.9911 91.4147
" />
<path d="M116.6887 92.0194
L116.6887 90.7494
" />
<path d="M116.6887 90.7494
L117.1725 90.7494
" />
<path d="M117.1725 90.7494
L117.2935 90.8099
" />
<path d="M117.2935 90.8099
L117.3540 90.8704
" />
<path d="M117.3540 90.8704
L117.4144 90.9913
" />
<path d="M117.4144 90.9913
L117.4144 91.1728
" />
<path d="M117.4144 91.1728
L117.3540 91.2937
" />
<path d="M117.3540 91.2937
L117.2935 91.3542
" />
<path d="M117.2935 91.3542
L117.1725 91.4147
" />
<path d="M117.1725 91.4147
L116.6887 91.4147
" />
<path d="M117.6564 92.1404
L118.6240 92.1404
" />
<path d="M118.8659 91.9590
L118.9868 92.0194
" />
<path d="M118.9868 92.0194
L119.2287 92.0194
" />
<path d="M119.2287 92.0194
L119.3497 91.9590
" />
<path d="M119.3497 91.9590
L119.4101 91.8380
" />
<path d="M119.4101 91.8380
L119.4101 91.7775
" />
<path d="M119.4101 91.7775
L119.3497 91.6566
" />
<path d="M119.3497 91.6566
L119.2287 91.5961
" />
<path d="M119.2287 91.5961
L119.0473 91.5961
" />
<path d="M119.0473 91.5961
L118.9263 91.5356
" />
<path d="M118.9263 91.5356
L118.8659 91.4147
" />
<path d="M118.8659 91.4147
L118.8659 91.3542
" />
<path d="M118.8659 91.3542
L118.9263 91.2332
" />
<path d="M118.9263 91.2332
L119.0473 91.1728
" />
<path d="M119.0473 91.1728
L119.2287 91.1728
" />
<path d="M119.2287 91.1728
L119.3497 91.2332
" />
<path d="M120.1359 92.0194
L120.0149 91.9590
" />
<path d="M120.0149 91.9590
L119.9544 91.8985
" />
<path d="M119.9544 91.8985
L119.8940 91.7775
" />
<path d="M119.8940 91.7775
L119.8940 91.4147
" />
<path d="M119.8940 91.4147
L119.9544 91.2937
" />
<path d="M119.9544 91.2937
L120.0149 91.2332
" />
<path d="M120.0149 91.2332
L120.1359 91.1728
" />
<path d="M120.1359 91.1728
L120.3173 91.1728
" />
<path d="M120.3173 91.1728
L120.4382 91.2332
" />
<path d="M120.4382 91.2332
L120.4987 91.2937
" />
<path d="M120.4987 91.2937
L120.5592 91.4147
" />
<path d="M120.5592 91.4147
L120.5592 91.7775
" />
<path d="M120.5592 91.7775
L120.4987 91.8985
" />
<path d="M120.4987 91.8985
L120.4382 91.9590
" />
<path d="M120.4382 91.9590
L120.3173 92.0194
" />
<path d="M120.3173 92.0194
L120.1359 92.0194
" />
<path d="M121.6477 91.1728
L121.6477 92.0194
" />
<path d="M121.1034 91.1728
L121.1034 91.8380
" />
<path d="M121.1034 91.8380
L121.1639 91.9590
" />
<path d="M121.1639 91.9590
L121.2849 92.0194
" />
<path d="M121.2849 92.0194
L121.4663 92.0194
" />
<path d="M121.4663 92.0194
L121.5872 91.9590
" />
<path d="M121.5872 91.9590
L121.6477 91.8985
" />
<path d="M122.2524 92.0194
L122.2524 91.1728
" />
<path d="M122.2524 91.4147
L122.3129 91.2937
" />
<path d="M122.3129 91.2937
L122.3734 91.2332
" />
<path d="M122.3734 91.2332
L122.4943 91.1728
" />
<path d="M122.4943 91.1728
L122.6153 91.1728
" />
<path d="M123.5829 91.9590
L123.4620 92.0194
" />
<path d="M123.4620 92.0194
L123.2201 92.0194
" />
<path d="M123.2201 92.0194
L123.0991 91.9590
" />
<path d="M123.0991 91.9590
L123.0386 91.8985
" />
<path d="M123.0386 91.8985
L122.9782 91.7775
" />
<path d="M122.9782 91.7775
L122.9782 91.4147
" />
<path d="M122.9782 91.4147
L123.0386 91.2937
" />
<path d="M123.0386 91.2937
L123.0991 91.2332
" />
<path d="M123.0991 91.2332
L123.2201 91.1728
" />
<path d="M123.2201 91.1728
L123.4620 91.1728
" />
<path d="M123.4620 91.1728
L123.5829 91.2332
" />
<path d="M124.6110 91.9590
L124.4901 92.0194
" />
<path d="M124.4901 92.0194
L124.2482 92.0194
" />
<path d="M124.2482 92.0194
L124.1272 91.9590
" />
<path d="M124.1272 91.9590
L124.0668 91.8380
" />
<path d="M124.0668 91.8380
L124.0668 91.3542
" />
<path d="M124.0668 91.3542
L124.1272 91.2332
" />
<path d="M124.1272 91.2332
L124.2482 91.1728
" />
<path d="M124.2482 91.1728
L124.4901 91.1728
" />
<path d="M124.4901 91.1728
L124.6110 91.2332
" />
<path d="M124.6110 91.2332
L124.6715 91.3542
" />
<path d="M124.6715 91.3542
L124.6715 91.4751
" />
<path d="M124.6715 91.4751
L124.0668 91.5961
" />
</g></g>
<g style="fill:none; 
stroke:#505050; stroke-width:0.1524; stroke-opacity:1; 
stroke-linecap:round; stroke-linejoin:round;">
<text x="120.6499" y="94.1349"
textLength="8.0649" font-size="1.6933" lengthAdjust="spacingAndGlyphs"
text-anchor="middle" opacity="0" stroke-opacity="0">5 mohm</text>
<g class="stroked-text"><desc>5 mohm</desc>
<path d="M117.6262 92.8094
L117.0214 92.8094
" />
<path d="M117.0214 92.8094
L116.9610 93.4142
" />
<path d="M116.9610 93.4142
L117.0214 93.3537
" />
<path d="M117.0214 93.3537
L117.1424 93.2932
" />
<path d="M117.1424 93.2932
L117.4448 93.2932
" />
<path d="M117.4448 93.2932
L117.5657 93.3537
" />
<path d="M117.5657 93.3537
L117.6262 93.4142
" />
<path d="M117.6262 93.4142
L117.6867 93.5351
" />
<path d="M117.6867 93.5351
L117.6867 93.8375
" />
<path d="M117.6867 93.8375
L117.6262 93.9585
" />
<path d="M117.6262 93.9585
L117.5657 94.0190
" />
<path d="M117.5657 94.0190
L117.4448 94.0794
" />
<path d="M117.4448 94.0794
L117.1424 94.0794
" />
<path d="M117.1424 94.0794
L117.0214 94.0190
" />
<path d="M117.0214 94.0190
L116.9610 93.9585
" />
<path d="M119.1985 94.0794
L119.1985 93.2328
" />
<path d="M119.1985 93.3537
L119.2590 93.2932
" />
<path d="M119.2590 93.2932
L119.3800 93.2328
" />
<path d="M119.3800 93.2328
L119.5614 93.2328
" />
<path d="M119.5614 93.2328
L119.6823 93.2932
" />
<path d="M119.6823 93.2932
L119.7428 93.4142
" />
<path d="M119.7428 93.4142
L119.7428 94.0794
" />
<path d="M119.7428 93.4142
L119.8033 93.2932
" />
<path d="M119.8033 93.2932
L119.9242 93.2328
" />
<path d="M119.9242 93.2328
L120.1057 93.2328
" />
<path d="M120.1057 93.2328
L120.2266 93.2932
" />
<path d="M120.2266 93.2932
L120.2871 93.4142
" />
<path d="M120.2871 93.4142
L120.2871 94.0794
" />
<path d="M121.0733 94.0794
L120.9523 94.0190
" />
<path d="M120.9523 94.0190
L120.8918 93.9585
" />
<path d="M120.8918 93.9585
L120.8314 93.8375
" />
<path d="M120.8314 93.8375
L120.8314 93.4747
" />
<path d="M120.8314 93.4747
L120.8918 93.3537
" />
<path d="M120.8918 93.3537
L120.9523 93.2932
" />
<path d="M120.9523 93.2932
L121.0733 93.2328
" />
<path d="M121.0733 93.2328
L121.2547 93.2328
" />
<path d="M121.2547 93.2328
L121.3756 93.2932
" />
<path d="M121.3756 93.2932
L121.4361 93.3537
" />
<path d="M121.4361 93.3537
L121.4966 93.4747
" />
<path d="M121.4966 93.4747
L121.4966 93.8375
" />
<path d="M121.4966 93.8375
L121.4361 93.9585
" />
<path d="M121.4361 93.9585
L121.3756 94.0190
" />
<path d="M121.3756 94.0190
L121.2547 94.0794
" />
<path d="M121.2547 94.0794
L121.0733 94.0794
" />
<path d="M122.0408 94.0794
L122.0408 92.8094
" />
<path d="M122.5851 94.0794
L122.5851 93.4142
" />
<path d="M122.5851 93.4142
L122.5246 93.2932
" />
<path d="M122.5246 93.2932
L122.4037 93.2328
" />
<path d="M122.4037 93.2328
L122.2223 93.2328
" />
<path d="M122.2223 93.2328
L122.1013 93.2932
" />
<path d="M122.1013 93.2932
L122.0408 93.3537
" />
<path d="M123.1898 94.0794
L123.1898 93.2328
" />
<path d="M123.1898 93.3537
L123.2503 93.2932
" />
<path d="M123.2503 93.2932
L123.3713 93.2328
" />
<path d="M123.3713 93.2328
L123.5527 93.2328
" />
<path d="M123.5527 93.2328
L123.6736 93.2932
" />
<path d="M123.6736 93.2932
L123.7341 93.4142
" />
<path d="M123.7341 93.4142
L123.7341 94.0794
" />
<path d="M123.7341 93.4142
L123.7946 93.2932
" />
<path d="M123.7946 93.2932
L123.9155 93.2328
" />
<path d="M123.9155 93.2328
L124.0970 93.2328
" />
<path d="M124.0970 93.2328
L124.2179 93.2932
" />
<path d="M124.2179 93.2932
L124.2784 93.4142
" />
<path d="M124.2784 93.4142
L124.2784 94.0794
" />
</g></g>
<g style="fill:none; 
stroke:#8C8C8C; stroke-width:0.1524; stroke-opacity:1; 
stroke-linecap:round; stroke-linejoin:round;">
<path d="M101.6000 100.3300
L101.6000 95.2500
" />
<path d="M196.8500 109.2200
L196.8500 115.5700
" />
<path d="M196.8500 95.2500
L196.8500 101.6000
" />
<path d="M189.2300 95.2500
L196.8500 95.2500
" />
<path d="M101.6000 115.5700
L139.7000 115.5700
" />
<path d="M101.6000 110.4900
L101.6000 115.5700
" />
<path d="M101.6000 95.2500
L116.8400 95.2500
" />
<path d="M146.0500 95.2500
L160.0200 95.2500
" />
<path d="M139.7000 115.5700
L148.5900 115.5700
" />
<path d="M124.4600 95.2500
L138.4300 95.2500
" />
<path d="M148.5900 115.5700
L196.8500 115.5700
" />
<path d="M167.6400 95.2500
L181.6100 95.2500
" />
</g> 
</svg>
